Coordinates
version=1
nRows=38
nColumns=38
inDegrees=no

Units are S.I. units (second, meters, Newtons, ...)
If the header above contains a line with 'inDegrees', this indicates whether rotational values are in degrees (yes) or radians (no).

endheader
time	pelvis_tilt	pelvis_list	pelvis_rotation	pelvis_tx	pelvis_ty	pelvis_tz	hip_flexion_r	hip_adduction_r	hip_rotation_r	knee_angle_r	ankle_angle_r	subtalar_angle_r	mtp_angle_r	hip_flexion_l	hip_adduction_l	hip_rotation_l	knee_angle_l	ankle_angle_l	subtalar_angle_l	mtp_angle_l	lumbar_extension	lumbar_bending	lumbar_rotation	arm_flex_r	arm_add_r	arm_rot_r	elbow_flex_r	pro_sup_r	wrist_flex_r	wrist_dev_r	arm_flex_l	arm_add_l	arm_rot_l	elbow_flex_l	pro_sup_l	wrist_flex_l	wrist_dev_l
0.48	0.553824	1.38087	1.21073	0.654639	0.179316	1.04817	0.455959	-0.0598812	-0.191251	0.0974869	-0.22599	0	0	-0.033302	-0.0610283	-0.238897	0.171047	-0.144844	0	0	-0.193538	0.0872094	-0.0425521	-0.125851	-0.458665	0.307297	0.603298	1.06534	0	0	0.228896	-0.549383	0.397731	0.684243	1.36037	0	0
0.49	0.526837	1.37818	1.24218	0.655393	0.192115	1.04524	0.449333	-0.0606175	-0.176875	0.0233864	-0.237106	0	0	-0.0420311	-0.0608242	-0.238456	0.171384	-0.139835	0	0	-0.186142	0.0808713	-0.0473705	-0.127309	-0.455903	0.309708	0.601141	1.07114	0	0	0.240266	-0.552613	0.407999	0.683969	1.36492	0	0
0.5	0.502334	1.37675	1.27063	0.656155	0.205092	1.04228	0.449041	-0.062441	-0.178788	0	-0.237528	0	0	-0.0515046	-0.0608132	-0.239543	0.173449	-0.137142	0	0	-0.181124	0.0745801	-0.0514587	-0.129168	-0.453744	0.311314	0.600813	1.07408	0	0	0.249801	-0.555661	0.415342	0.686468	1.36773	0	0
0.51	0.478448	1.37546	1.29879	0.656948	0.218226	1.03932	0.452646	-0.0650391	-0.189485	0	-0.230158	0	0	-0.0596977	-0.0611761	-0.238683	0.179061	-0.128321	0	0	-0.176011	0.0676783	-0.0557272	-0.129245	-0.449935	0.314714	0.596208	1.08058	0	0	0.259476	-0.561088	0.429077	0.690153	1.37168	0	0
0.52	0.459121	1.37394	1.32144	0.657863	0.231599	1.03636	0.4573	-0.0662877	-0.201178	0	-0.218566	0	0	-0.0668887	-0.0629406	-0.238904	0.187216	-0.122502	0	0	-0.171569	0.0619599	-0.059131	-0.12938	-0.446538	0.317863	0.592468	1.08362	0	0	0.266768	-0.565663	0.438956	0.694827	1.37491	0	0
0.53	0.443385	1.37304	1.34021	0.658844	0.245075	1.03356	0.461395	-0.066795	-0.210271	0	-0.206363	0	0	-0.0737375	-0.0657085	-0.239066	0.197532	-0.117777	0	0	-0.168985	0.0568758	-0.0623339	-0.128601	-0.443405	0.322872	0.588888	1.08594	0	0	0.27249	-0.569997	0.445862	0.700411	1.37948	0	0
0.54	0.431746	1.37349	1.35478	0.659795	0.258628	1.03104	0.464099	-0.066772	-0.214689	0	-0.194778	0	0	-0.080964	-0.0692629	-0.239007	0.209874	-0.113964	0	0	-0.169303	0.0525527	-0.0652112	-0.126595	-0.440472	0.329552	0.585192	1.08722	0	0	0.27722	-0.573863	0.450223	0.706351	1.38638	0	0
0.55	0.429239	1.37459	1.35941	0.660755	0.272385	1.02877	0.466004	-0.0648056	-0.213065	0	-0.190504	0	0	-0.088458	-0.0746104	-0.238534	0.224245	-0.112813	0	0	-0.171256	0.0508155	-0.0665521	-0.125869	-0.438247	0.333045	0.583847	1.0878	0	0	0.281788	-0.575703	0.454421	0.709602	1.39266	0	0
0.56	0.436715	1.37676	1.35356	0.66172	0.286405	1.02687	0.466916	-0.0605216	-0.209073	0	-0.186893	0	0	-0.0962919	-0.0817695	-0.238316	0.241672	-0.111724	0	0	-0.175638	0.0512742	-0.0669491	-0.124364	-0.436346	0.337672	0.582107	1.08846	0	0	0.285829	-0.576996	0.459424	0.711763	1.40289	0	0
0.57	0.45224	1.37951	1.33897	0.66268	0.300753	1.02528	0.466921	-0.0541557	-0.203389	0	-0.185327	0	0	-0.104289	-0.0902723	-0.238766	0.261146	-0.111437	0	0	-0.181153	0.0537872	-0.0665543	-0.122567	-0.434799	0.342712	0.580067	1.08891	0	0	0.288824	-0.577321	0.464975	0.711648	1.4163	0	0
0.58	0.475852	1.38337	1.3156	0.663619	0.315532	1.02395	0.464336	-0.0457391	-0.196077	0	-0.187444	0	0	-0.113277	-0.0998143	-0.240705	0.282455	-0.112322	0	0	-0.187905	0.0579653	-0.0647816	-0.121088	-0.433842	0.349052	0.577494	1.08735	0	0	0.290894	-0.576074	0.469506	0.708983	1.43826	0	0
0.59	0.510175	1.38852	1.28107	0.664507	0.330776	1.02281	0.457274	-0.0346956	-0.187083	0	-0.203084	0	0	-0.123588	-0.110814	-0.244283	0.306329	-0.117392	0	0	-0.195949	0.0640041	-0.0612931	-0.120113	-0.434795	0.360773	0.575068	1.07896	0	0	0.290468	-0.570026	0.462299	0.702916	1.48023	0	0
0.6	0.54225	1.3911	1.24939	0.665261	0.346355	1.02156	0.452533	-0.0239717	-0.180696	0.0103472	-0.230108	0	0	-0.129763	-0.121572	-0.245215	0.332651	-0.124797	0	0	-0.199858	0.0708719	-0.0609591	-0.118058	-0.435257	0.374331	0.570065	1.07299	0	0	0.284144	-0.563767	0.450835	0.696168	1.51233	0	0
0.61	0.572072	1.39079	1.22015	0.66592	0.361996	1.02028	0.451729	-0.0150227	-0.175291	0.0292024	-0.266902	0	0	-0.130373	-0.132266	-0.242338	0.363617	-0.135985	0	0	-0.200088	0.0787426	-0.0617398	-0.115486	-0.435351	0.388272	0.563106	1.066	0	0	0.275653	-0.556574	0.43929	0.686576	1.54145	0	0
0.62	0.59707	1.38842	1.19535	0.666564	0.377641	1.01917	0.455612	-0.00809391	-0.175713	0.0522443	-0.29604	0	0	-0.125246	-0.141949	-0.235326	0.40093	-0.150678	0	0	-0.197697	0.086755	-0.0619105	-0.113918	-0.434995	0.40037	0.556092	1.05878	0	0	0.26648	-0.548587	0.429779	0.674853	1.56385	0	0
0.63	0.625013	1.38492	1.16699	0.667364	0.39313	1.01835	0.462527	-0.00060735	-0.185813	0.0844348	-0.306512	0	0	-0.115738	-0.152484	-0.226398	0.444268	-0.16334	0	0	-0.195032	0.0957877	-0.0604338	-0.113557	-0.434645	0.40855	0.550896	1.05338	0	0	0.257166	-0.540815	0.423425	0.663555	1.5708	0	0
0.64	0.654733	1.3786	1.13732	0.668181	0.40835	1.0178	0.472482	0.00745109	-0.200686	0.124737	-0.296461	0	0	-0.0998935	-0.164789	-0.214623	0.493806	-0.184137	0	0	-0.18878	0.106789	-0.058898	-0.113134	-0.435045	0.419867	0.545137	1.04404	0	0	0.24753	-0.531548	0.419541	0.648986	1.5708	0	0
0.65	0.692958	1.37286	1.09865	0.669	0.423118	1.01779	0.479955	0.016973	-0.204601	0.168227	-0.270849	0	0	-0.08203	-0.178389	-0.201366	0.549424	-0.209633	0	0	-0.185804	0.119831	-0.0556771	-0.112702	-0.436105	0.427752	0.541601	1.03419	0	0	0.238185	-0.521445	0.41472	0.635468	1.5708	0	0
0.66	0.736629	1.36762	1.05374	0.669808	0.437445	1.01817	0.486355	0.0281168	-0.200405	0.215315	-0.241112	0	0	-0.0624225	-0.192557	-0.186858	0.609891	-0.237642	0	0	-0.186095	0.134504	-0.0510691	-0.112155	-0.437962	0.432373	0.540429	1.02476	0	0	0.228738	-0.510253	0.407206	0.622961	1.5708	0	0
0.67	0.780598	1.3629	1.00757	0.670766	0.451377	1.01873	0.491143	0.0403015	-0.194029	0.260423	-0.212488	0	0	-0.0411604	-0.206526	-0.17171	0.673809	-0.265241	0	0	-0.189295	0.149089	-0.0453507	-0.111384	-0.439899	0.434778	0.541261	1.01722	0	0	0.219259	-0.499274	0.398013	0.612179	1.5708	0	0
0.68	0.817475	1.35919	0.967694	0.671948	0.465081	1.0192	0.493397	0.0516412	-0.190924	0.298866	-0.186536	0	0	-0.0185454	-0.218589	-0.156948	0.738979	-0.294018	0	0	-0.193624	0.161132	-0.039396	-0.111207	-0.441122	0.435579	0.543871	1.01258	0	0	0.209613	-0.490295	0.391365	0.603421	1.56625	0	0
0.69	0.835481	1.35612	0.94605	0.673316	0.478853	1.01928	0.493954	0.0604248	-0.192253	0.329579	-0.162008	0	0	0.00631704	-0.226776	-0.143913	0.802721	-0.322226	0	0	-0.194921	0.168198	-0.034722	-0.111866	-0.440137	0.435579	0.545585	1.0101	0	0	0.198723	-0.484121	0.389795	0.595474	1.55297	0	0
0.7	0.850723	1.35512	0.929114	0.67456	0.492631	1.01932	0.487588	0.0676598	-0.198051	0.347983	-0.139749	0	0	0.0307731	-0.233044	-0.130692	0.864299	-0.350593	0	0	-0.196524	0.172577	-0.032686	-0.112824	-0.43781	0.435399	0.547285	1.00815	0	0	0.188434	-0.480843	0.395599	0.588278	1.53363	0	0
0.71	0.869027	1.35808	0.910191	0.675569	0.506418	1.01967	0.472483	0.0731496	-0.205161	0.356224	-0.119679	0	0	0.0516561	-0.236725	-0.118945	0.921996	-0.380527	0	0	-0.201673	0.174051	-0.031534	-0.113892	-0.435113	0.43563	0.549911	1.00613	0	0	0.179996	-0.480121	0.409132	0.582222	1.51004	0	0
0.72	0.887949	1.36342	0.891181	0.676408	0.520042	1.02024	0.45295	0.0770219	-0.211469	0.36011	-0.0986785	0	0	0.0707858	-0.238214	-0.108514	0.976045	-0.408211	0	0	-0.208874	0.17314	-0.0298271	-0.115643	-0.432635	0.4362	0.553833	1.00323	0	0	0.175305	-0.48318	0.439151	0.577391	1.47557	0	0
0.73	0.904306	1.36925	0.874601	0.677137	0.533476	1.02102	0.431907	0.079984	-0.215882	0.360438	-0.081949	0	0	0.0897112	-0.23812	-0.0995417	1.02673	-0.414832	0	0	-0.216035	0.1707	-0.0275456	-0.116949	-0.429833	0.436908	0.556616	0.998602	0	0	0.172567	-0.487857	0.477323	0.573472	1.43742	0	0
0.74	0.91674	1.37423	0.862018	0.67784	0.546841	1.02202	0.410766	0.0829747	-0.219726	0.357444	-0.0684988	0	0	0.109371	-0.237465	-0.0921975	1.07374	-0.39941	0	0	-0.221114	0.167559	-0.0257316	-0.117238	-0.426264	0.439525	0.55651	0.99372	0	0	0.170283	-0.493304	0.519785	0.569677	1.39861	0	0
0.75	0.926171	1.37786	0.852222	0.678527	0.560167	1.02328	0.390232	0.0868957	-0.224118	0.352983	-0.0581311	0	0	0.129971	-0.236962	-0.0870303	1.11697	-0.367168	0	0	-0.224165	0.16472	-0.0248042	-0.11558	-0.421947	0.444355	0.552726	0.989562	0	0	0.165814	-0.496792	0.553602	0.565266	1.37175	0	0
0.76	0.939567	1.38223	0.836052	0.679308	0.573367	1.02502	0.36864	0.0920202	-0.226078	0.348287	-0.0499332	0	0	0.148127	-0.236185	-0.0860911	1.15571	-0.326902	0	0	-0.228976	0.161799	-0.0215762	-0.11293	-0.418158	0.448954	0.548428	0.984336	0	0	0.160897	-0.498622	0.581718	0.560755	1.355	0	0
0.77	0.954291	1.3873	0.816429	0.680139	0.58644	1.02714	0.346256	0.0973476	-0.223828	0.341208	-0.0441122	0	0	0.164534	-0.234473	-0.0885515	1.18941	-0.282292	0	0	-0.234731	0.158339	-0.016153	-0.109924	-0.414875	0.452918	0.543852	0.977961	0	0	0.15636	-0.49924	0.607468	0.555976	1.34115	0	0
0.78	0.973066	1.39291	0.792253	0.680989	0.599219	1.02954	0.32293	0.102738	-0.219845	0.333255	-0.0401696	0	0	0.180128	-0.232271	-0.0921596	1.21818	-0.237971	0	0	-0.241808	0.155022	-0.00994498	-0.106956	-0.412337	0.455823	0.540539	0.972329	0	0	0.15224	-0.499064	0.630363	0.551628	1.32858	0	0
0.79	0.988727	1.39912	0.77091	0.681728	0.611919	1.0321	0.29905	0.106598	-0.215233	0.324323	-0.0378594	0	0	0.195327	-0.228392	-0.0970396	1.24082	-0.198121	0	0	-0.24829	0.150835	-0.00416198	-0.104375	-0.410047	0.458225	0.537572	0.969638	0	0	0.146941	-0.497591	0.647843	0.546911	1.3188	0	0
0.8	1.00381	1.40703	0.750009	0.682357	0.62457	1.03486	0.273551	0.108187	-0.210776	0.314579	-0.0367435	0	0	0.20873	-0.222519	-0.102643	1.25716	-0.160431	0	0	-0.255537	0.145156	0.00126602	-0.101952	-0.407641	0.459445	0.534748	0.966948	0	0	0.141412	-0.49573	0.662648	0.542281	1.30866	0	0
0.81	1.02019	1.4161	0.727676	0.682865	0.637099	1.03772	0.247442	0.107899	-0.206073	0.305863	-0.0363011	0	0	0.220675	-0.215321	-0.108288	1.26765	-0.127845	0	0	-0.263788	0.13862	0.00646504	-0.0996989	-0.405691	0.459813	0.53297	0.96455	0	0	0.135464	-0.493358	0.673473	0.538238	1.29755	0	0
0.82	1.03676	1.42522	0.704962	0.68326	0.649485	1.04059	0.221733	0.106471	-0.201562	0.298546	-0.036649	0	0	0.232149	-0.207582	-0.113536	1.27212	-0.102661	0	0	-0.272152	0.131936	0.0113695	-0.0974441	-0.404361	0.460457	0.532009	0.96345	0	0	0.12868	-0.490056	0.678746	0.534466	1.2873	0	0
0.83	1.04849	1.43373	0.687042	0.6836	0.661743	1.04333	0.19589	0.104679	-0.200002	0.288275	-0.0380909	0	0	0.24435	-0.199499	-0.118126	1.27117	-0.0827084	0	0	-0.27934	0.125177	0.0157776	-0.0954187	-0.403416	0.460941	0.531754	0.962949	0	0	0.121163	-0.486408	0.680173	0.531076	1.27792	0	0
0.84	1.05955	1.44256	0.67015	0.683893	0.6739	1.046	0.168817	0.102297	-0.202524	0.274346	-0.0415763	0	0	0.25604	-0.190935	-0.12217	1.26513	-0.0635882	0	0	-0.2866	0.117878	0.0195382	-0.0937255	-0.402555	0.460642	0.532529	0.962567	0	0	0.113738	-0.483682	0.681195	0.529173	1.26642	0	0
0.85	1.06308	1.4508	0.660807	0.68414	0.685952	1.04845	0.143243	0.0992865	-0.203559	0.258591	-0.0459604	0	0	0.268651	-0.181991	-0.125141	1.25456	-0.0498381	0	0	-0.292652	0.110237	0.0229767	-0.0923951	-0.401739	0.459443	0.533827	0.962538	0	0	0.105975	-0.480958	0.679395	0.527774	1.25659	0	0
